<svg xmlns="http://www.w3.org/2000/svg" xmlns:xlink="http://www.w3.org/1999/xlink" preserveAspectRatio="xMidYMid meet" viewBox="-650 -1050 1300 2050">
  <path d="M  375,875 382,868 388,862 394,856 400,849 406,842 412,835 418,828 424,821 430,814 436,808 442,801 448,794 454,787 460,780 466,773 473,766 478,760 484,753 491,746 497,739 503,732 509,725 514,720 519,714 525,708 530,702 534,697 538,692 542,687 545,683 549,679 552,674 554,670 556,665 558,662 559,658 560,653 561,649 562,645 562,642 562,638 562,635 562,631 561,628 560,625 559,621 558,618 556,616 554,613 552,610 550,608 548,605 545,603 543,601 540,599 537,598 533,596 530,595 527,594 523,593 520,592 516,592 512,592 508,592 504,592 500,592 496,593 493,594 488,595 484,597 480,598 476,600 472,602 468,604 463,607 459,610 454,613 450,616 446,619 442,622 438,626 434,630 430,634 426,639 422,643 418,646 413,650 408,654 403,657 398,660 392,663 387,666 382,667 376,669 370,670 365,671 359,672 353,672 347,672 343,672 337,671 331,670 325,669 320,667 314,665 309,663 304,661 299,658 294,655 288,651 283,647 279,643 275,639 270,635 266,630 262,625 259,619 255,613 253,608 250,602 247,596 245,589 243,583 241,576 240,570 239,563 238,556 238,549 237,542 237,536 237,529 236,521 236,514 236,506 236,500 236,492 236,484 236,477 236,469 236,461 236,454 236,446 235,438 235,430 235,422 235,414 235,407 235,399 235,390 235,382 234,373 234,365 234,356 234,349 234,341 233,332 233,324 233,315 233,306 233,297 232,290 232,281 232,272 232,263 231,254 231,245 231,238 231,229 231,220 230,211 230,202 230,192 230,183 229,176 229,166 229,157 229,148 228,138 228,129 228,121 228,112 227,102 227,93 227,84 226,74 226,66 226,57 226,47 225,38 225,28 225,18 225,9 225,1 224,-8 224,-18 224,-27 224,-37 224,-47 223,-55 223,-64 223,-74 223,-84 223,-94 222,-103 222,-113 222,-121 222,-131 222,-141 221,-150 221,-159 221,-167 221,-174 221,-182 221,-189 220,-196 220,-202 220,-209 220,-213 220,-219 220,-224 221,-229 221,-233 222,-238 223,-242 224,-245 225,-249 227,-252 228,-255 230,-258 232,-261 234,-263 236,-266 239,-268 241,-270 244,-272 246,-274 249,-276 253,-277 256,-278 259,-280 263,-280 266,-281 270,-281 273,-282 277,-282 281,-282 285,-282 290,-282 293,-282 298,-282 303,-282 307,-282 312,-282 317,-282 322,-282 327,-282 332,-282 338,-282 343,-282 349,-281 355,-281 360,-281 366,-281 372,-281 378,-281 384,-281 390,-281 396,-281 402,-282 409,-282 415,-282 422,-283 429,-284 436,-285 441,-286 448,-287 455,-289 462,-291 469,-293 474,-296 481,-298 488,-302 494,-305 501,-309 506,-312 512,-316 518,-321 524,-325 530,-330 536,-335 540,-340 545,-346 550,-352 555,-358 562,-367 566,-374 569,-379 572,-385 575,-391 578,-397 580,-403 582,-408 584,-412 585,-417 586,-422 587,-426 588,-431 589,-435 589,-439 589,-442 589,-446 588,-449 587,-453 587,-456 585,-459 584,-462 583,-464 581,-467 580,-469 578,-471 575,-473 573,-475 571,-477 569,-478 566,-480 563,-481 560,-483 557,-484 555,-485 552,-487 549,-489 547,-491 545,-493 543,-495 541,-497 540,-500 538,-503 537,-505 536,-508 535,-511 534,-514 534,-517 534,-520 534,-523 534,-527 534,-530 535,-533 536,-536 537,-539 538,-542 540,-545 542,-548 544,-551 546,-553 548,-556 550,-559 553,-562 555,-565 557,-569 559,-572 561,-576 563,-579 564,-582 565,-586 566,-589 566,-592 566,-595 566,-598 566,-601 566,-603 565,-606 564,-609 563,-611 562,-614 561,-616 559,-618 557,-621 555,-623 553,-624 551,-626 548,-628 546,-630 543,-631 539,-633 536,-634 532,-634 529,-635 525,-636 522,-636 518,-636 515,-637 511,-637 507,-637 502,-637 498,-637 494,-637 489,-637 485,-637 480,-637 475,-637 469,-637 464,-637 460,-637 454,-637 448,-637 443,-637 437,-637 431,-637 425,-637 420,-637 414,-637 408,-637 401,-637 395,-637 389,-637 383,-637 376,-637 369,-637 363,-637 356,-637 349,-637 343,-637 336,-637 329,-637 321,-637 314,-637 308,-637 300,-637 293,-637 285,-637 278,-637 270,-637 263,-637 263,-637 252,-638 245,-638 237,-639 229,-640 221,-641 214,-642 206,-643 198,-644 191,-646 183,-648 175,-650 168,-651 160,-654 152,-656 144,-659 137,-662 129,-666 123,-669 115,-672 108,-676 101,-681 94,-685 88,-689 81,-695 75,-700 68,-706 62,-712 57,-718 52,-723 47,-730 42,-737 37,-744 32,-751 28,-758 24,-766 21,-772 17,-780 13,-788 10,-796 6,-804 3,-812 0,-819 -3,-827 -6,-835 -10,-843 -13,-850 -17,-858 -21,-866 -25,-874 -29,-881 -34,-889 -39,-896 -43,-902 -48,-909 -54,-916 -60,-923 -66,-929 -72,-934 -78,-940 -85,-945 -92,-950 -100,-955 -107,-960 -115,-964 -123,-968 -129,-971 -137,-975 -146,-978 -154,-981 -162,-983 -169,-985 -175,-987 -182,-988 -188,-990 -194,-991 -200,-992 -205,-993 -209,-994 -214,-994 -219,-995 -223,-995 -227,-995 -231,-995 -235,-994 -238,-994 -242,-993 -245,-992 -248,-991 -252,-989 -255,-987 -257,-986 -260,-984 -263,-982 -265,-979 -268,-977 -270,-974 -272,-971 -274,-968 -276,-965 -278,-962 -280,-958 -282,-955 -283,-951 -285,-947 -287,-944 -289,-940 -291,-935 -293,-931 -295,-926 -296,-922 -299,-918 -301,-913 -303,-908 -305,-903 -308,-898 -310,-893 -312,-888 -315,-883 -318,-878 -320,-872 -323,-867 -326,-861 -328,-856 -331,-850 -334,-845 -337,-839 -340,-833 -343,-827 -345,-822 -349,-816 -352,-809 -355,-803 -358,-797 -362,-790 -365,-785 -368,-779 -371,-772 -375,-766 -378,-759 -382,-752 -385,-747 -389,-740 -392,-733 -396,-727 -400,-720 -403,-713 -407,-706 -410,-700 -414,-693 -418,-686 -421,-679 -425,-672 -429,-664 -432,-658 -436,-651 -439,-643 -443,-636 -446,-629 -450,-621 -453,-615 -457,-607 -460,-599 -464,-592 -467,-584 -470,-576 -473,-569 -476,-561 -479,-553 -483,-545 -486,-537 -489,-529 -491,-521 -494,-514 -496,-506 -499,-497 -502,-489 -505,-480 -507,-472 -510,-463 -512,-455 -515,-447 -517,-439 -520,-430 -522,-421 -524,-413 -527,-404 -528,-396 -531,-387 -533,-378 -535,-369 -537,-360 -539,-351 -541,-344 -543,-334 -545,-325 -546,-316 -548,-307 -550,-298 -552,-288 -553,-280 -555,-271 -556,-262 -558,-252 -559,-243 -560,-234 -562,-224 -563,-216 -564,-207 -565,-197 -566,-188 -567,-178 -568,-168 -569,-159 -569,-151 -570,-141 -571,-131 -571,-122 -572,-112 -572,-102 -573,-92 -573,-84 -573,-74 -574,-65 -574,-55 -574,-45 -574,-35 -574,-27 -574,-17 -574,-7 -575,2 -575,12 -575,22 -575,30 -575,40 -575,50 -575,60 -575,70 -575,78 -575,88 -575,98 -575,108 -576,118 -576,128 -576,136 -576,147 -576,157 -576,166 -577,176 -577,186 -577,195 -577,205 -578,215 -578,225 -578,225 -578,235 -578,245 -579,255 -579,263 -579,273 -580,283 -580,293 -580,303 -581,313 -581,323 -581,332 -582,342 -582,352 -582,362 -583,372 -583,382 -583,391 -584,401 -584,411 -584,421 -585,431 -585,441 -585,450 -586,460 -586,470 -586,480 -587,490 -587,500 -587,510 -587,519 -588,529 -588,539 -588,549 -589,559 -589,568 -589,578 -589,588 -590,598 -590,609 -590,619 -590,627 -590,637 -591,647 -591,658 -591,668 -591,678 -591,686 -591,701 -592,712 -592,722 -592,732 -592,742 -592,752 -592,760 -592,770 -592,779 -592,787 -592,796 -592,804 -592,810 -592,817 -592,824 -592,830 -592,836 -591,842 -591,846 -591,854 -590,858 -590,863 -589,867 -588,871 -586,874 -585,877 -583,880 -581,883 -580,886 -577,889 -575,891 -573,893 -571,895 -568,897 -565,899 -563,900 -559,901 -556,903 -553,904 -549,905 -546,906 -542,907 -538,908 -534,910 -530,911 -527,913 -523,915 -520,917 -516,920 -512,922 -508,925 -504,928 -500,931 -497,934 -492,937 -488,939 -483,942 -478,944 -473,947 -468,949 -460,951 -455,953 -449,954 -443,955 -437,956 -431,957 -425,957 -419,957 -409,957 -403,957 -396,956 -390,956 -384,956 -377,956 -370,956 -363,955 -356,955 -349,955 -343,955 -335,955 -328,955 -321,955 -313,955 -306,954 -299,954 -292,954 -284,954 -276,954 -265,954 -257,954 -250,954 -242,954 -234,954 -226,954 -218,954 -210,954 -203,954 -195,953 -187,953 -178,953 -170,953 -162,953 -153,953 -145,953 -138,953 -129,953 -121,953 -112,953 -104,953 -95,953 -88,953 -79,953 -71,953 -62,953 -53,953 -44,953 -36,953 -28,953 -19,953 -11,953 -2,953 6,953 15,953 23,953 32,954 41,954 50,954 59,954 68,954 77,954 85,954 94,953 103,953 112,953 121,953 131,953 138,953 148,952 157,952 166,952 175,951 185,951 194,950 202,950 211,949 220,948 229,946 239,945 248,943 255,941 264,939 273,936 281,932 290,929 299,925 307,921 315,917 324,912 331,907 340,902 348,896 355,890 362,884 368,879 373,877 z" vector-effect="non-scaling-stroke" fill="none" style="stroke: #374151; stroke-width:8"/>
  <path d="M 375,875 382,868 388,862 394,856 400,849 406,842 412,835 418,828 424,821 430,814 436,808 442,801 448,794 454,787 460,780 466,773 473,766 478,760 484,753 491,746 497,739 503,732 509,725 514,720 519,714 525,708 530,702 534,697 538,692 542,687 545,683 549,679 552,674 554,670 556,665 558,662 559,658 560,653 561,649 562,645 562,642 562,638 562,635 562,631 561,628 560,625 559,621 558,618 556,616 554,613 552,610 550,608 548,605 545,603 543,601 540,599 537,598 533,596 530,595 527,594 523,593 520,592 516,592 512,592 508,592 504,592 500,592 496,593 493,594 488,595 484,597 480,598 476,600 472,602 468,604 463,607 459,610 454,613 450,616 446,619 442,622 438,626 434,630 430,634 426,639 422,643 418,646 413,650 408,654 403,657 398,660 392,663 387,666 382,667 376,669 370,670 365,671 359,672 353,672 347,672 343,672 337,671 331,670 325,669 320,667 314,665 309,663 304,661 299,658 294,655 288,651 283,647 279,643 275,639 270,635 266,630 262,625 259,619 255,613 253,608 250,602 247,596 245,589 243,583 241,576 240,570 239,563 238,556 238,549 237,542 237,536 237,529 236,521 236,514 236,506 236,500 236,492 236,484 236,477 236,469 236,461 236,454 236,446 235,438 235,430 235,422 235,414 235,407 235,399 235,390 235,382 234,373 234,365 234,356 234,349 234,341 233,332 233,324 233,315 233,306 233,297 232,290 232,281 232,272 232,263 231,254 231,245 231,238 231,229 231,220 230,211 230,202 230,192 230,183 229,176 229,166 229,157 229,148 228,138 228,129 228,121 228,112 227,102 227,93 227,84 226,74 226,66 226,57 226,47 225,38 225,28 225,18 225,9 225,1 224,-8 224,-18 224,-27 224,-37 224,-47 223,-55 223,-64 223,-74 223,-84 223,-94 222,-103 222,-113 222,-121 222,-131 222,-141 221,-150 221,-159 221,-167 221,-174 221,-182 221,-189 220,-196 220,-202 220,-209 220,-213 220,-219 220,-224 221,-229 221,-233 222,-238 223,-242 224,-245 225,-249 227,-252 228,-255 230,-258 232,-261 234,-263 236,-266 239,-268 241,-270 244,-272 246,-274 249,-276 253,-277 256,-278 259,-280 263,-280 266,-281 270,-281 273,-282 277,-282 281,-282 285,-282 290,-282 293,-282 298,-282 303,-282 307,-282 312,-282 317,-282 322,-282 327,-282 332,-282 338,-282 343,-282 349,-281 355,-281 360,-281 366,-281 372,-281 378,-281 384,-281 390,-281 396,-281 402,-282 409,-282 415,-282 422,-283 429,-284 436,-285 441,-286 448,-287 455,-289 462,-291 469,-293 474,-296 481,-298 488,-302 494,-305 501,-309 506,-312 512,-316 518,-321 524,-325 530,-330 536,-335 540,-340 545,-346 550,-352 555,-358 562,-367 566,-374 569,-379 572,-385 575,-391 578,-397 580,-403 582,-408 584,-412 585,-417 586,-422 587,-426 588,-431 589,-435 589,-439 589,-442 589,-446 588,-449 587,-453 587,-456 585,-459 584,-462 583,-464 581,-467 580,-469 578,-471 575,-473 573,-475 571,-477 569,-478 566,-480 563,-481 560,-483 557,-484 555,-485 552,-487 549,-489 547,-491 545,-493 543,-495 541,-497 540,-500 538,-503 537,-505 536,-508 535,-511 534,-514 534,-517 534,-520 534,-523 534,-527 534,-530 535,-533 536,-536 537,-539 538,-542 540,-545 542,-548 544,-551 546,-553 548,-556 550,-559 553,-562 555,-565 557,-569 559,-572 561,-576 563,-579 564,-582 565,-586 566,-589 566,-592 566,-595 566,-598 566,-601 566,-603 565,-606 564,-609 563,-611 562,-614 561,-616 559,-618 557,-621 555,-623 553,-624 551,-626 548,-628 546,-630 543,-631 539,-633 536,-634 532,-634 529,-635 525,-636 522,-636 518,-636 515,-637 511,-637 507,-637 502,-637 498,-637 494,-637 489,-637 485,-637 480,-637 475,-637 469,-637 464,-637 460,-637 454,-637 448,-637 443,-637 437,-637 431,-637 425,-637 420,-637 414,-637 408,-637 401,-637 395,-637 389,-637 383,-637 376,-637 369,-637 363,-637 356,-637 349,-637 343,-637 336,-637 329,-637 321,-637 314,-637 308,-637 300,-637 293,-637 285,-637 278,-637 270,-637 263,-637" vector-effect="non-scaling-stroke" fill="none" style="stroke: #EF4444; stroke-width:2"/>
  <path d="M 263,-637 252,-638 245,-638 237,-639 229,-640 221,-641 214,-642 206,-643 198,-644 191,-646 183,-648 175,-650 168,-651 160,-654 152,-656 144,-659 137,-662 129,-666 123,-669 115,-672 108,-676 101,-681 94,-685 88,-689 81,-695 75,-700 68,-706 62,-712 57,-718 52,-723 47,-730 42,-737 37,-744 32,-751 28,-758 24,-766 21,-772 17,-780 13,-788 10,-796 6,-804 3,-812 0,-819 -3,-827 -6,-835 -10,-843 -13,-850 -17,-858 -21,-866 -25,-874 -29,-881 -34,-889 -39,-896 -43,-902 -48,-909 -54,-916 -60,-923 -66,-929 -72,-934 -78,-940 -85,-945 -92,-950 -100,-955 -107,-960 -115,-964 -123,-968 -129,-971 -137,-975 -146,-978 -154,-981 -162,-983 -169,-985 -175,-987 -182,-988 -188,-990 -194,-991 -200,-992 -205,-993 -209,-994 -214,-994 -219,-995 -223,-995 -227,-995 -231,-995 -235,-994 -238,-994 -242,-993 -245,-992 -248,-991 -252,-989 -255,-987 -257,-986 -260,-984 -263,-982 -265,-979 -268,-977 -270,-974 -272,-971 -274,-968 -276,-965 -278,-962 -280,-958 -282,-955 -283,-951 -285,-947 -287,-944 -289,-940 -291,-935 -293,-931 -295,-926 -296,-922 -299,-918 -301,-913 -303,-908 -305,-903 -308,-898 -310,-893 -312,-888 -315,-883 -318,-878 -320,-872 -323,-867 -326,-861 -328,-856 -331,-850 -334,-845 -337,-839 -340,-833 -343,-827 -345,-822 -349,-816 -352,-809 -355,-803 -358,-797 -362,-790 -365,-785 -368,-779 -371,-772 -375,-766 -378,-759 -382,-752 -385,-747 -389,-740 -392,-733 -396,-727 -400,-720 -403,-713 -407,-706 -410,-700 -414,-693 -418,-686 -421,-679 -425,-672 -429,-664 -432,-658 -436,-651 -439,-643 -443,-636 -446,-629 -450,-621 -453,-615 -457,-607 -460,-599 -464,-592 -467,-584 -470,-576 -473,-569 -476,-561 -479,-553 -483,-545 -486,-537 -489,-529 -491,-521 -494,-514 -496,-506 -499,-497 -502,-489 -505,-480 -507,-472 -510,-463 -512,-455 -515,-447 -517,-439 -520,-430 -522,-421 -524,-413 -527,-404 -528,-396 -531,-387 -533,-378 -535,-369 -537,-360 -539,-351 -541,-344 -543,-334 -545,-325 -546,-316 -548,-307 -550,-298 -552,-288 -553,-280 -555,-271 -556,-262 -558,-252 -559,-243 -560,-234 -562,-224 -563,-216 -564,-207 -565,-197 -566,-188 -567,-178 -568,-168 -569,-159 -569,-151 -570,-141 -571,-131 -571,-122 -572,-112 -572,-102 -573,-92 -573,-84 -573,-74 -574,-65 -574,-55 -574,-45 -574,-35 -574,-27 -574,-17 -574,-7 -575,2 -575,12 -575,22 -575,30 -575,40 -575,50 -575,60 -575,70 -575,78 -575,88 -575,98 -575,108 -576,118 -576,128 -576,136 -576,147 -576,157 -576,166 -577,176 -577,186 -577,195 -577,205 -578,215 -578,225" vector-effect="non-scaling-stroke" fill="none" style="stroke: #3B82F6; stroke-width:2"/>
  <path d="M -578,225 -578,235 -578,245 -579,255 -579,263 -579,273 -580,283 -580,293 -580,303 -581,313 -581,323 -581,332 -582,342 -582,352 -582,362 -583,372 -583,382 -583,391 -584,401 -584,411 -584,421 -585,431 -585,441 -585,450 -586,460 -586,470 -586,480 -587,490 -587,500 -587,510 -587,519 -588,529 -588,539 -588,549 -589,559 -589,568 -589,578 -589,588 -590,598 -590,609 -590,619 -590,627 -590,637 -591,647 -591,658 -591,668 -591,678 -591,686 -591,701 -592,712 -592,722 -592,732 -592,742 -592,752 -592,760 -592,770 -592,779 -592,787 -592,796 -592,804 -592,810 -592,817 -592,824 -592,830 -592,836 -591,842 -591,846 -591,854 -590,858 -590,863 -589,867 -588,871 -586,874 -585,877 -583,880 -581,883 -580,886 -577,889 -575,891 -573,893 -571,895 -568,897 -565,899 -563,900 -559,901 -556,903 -553,904 -549,905 -546,906 -542,907 -538,908 -534,910 -530,911 -527,913 -523,915 -520,917 -516,920 -512,922 -508,925 -504,928 -500,931 -497,934 -492,937 -488,939 -483,942 -478,944 -473,947 -468,949 -460,951 -455,953 -449,954 -443,955 -437,956 -431,957 -425,957 -419,957 -409,957 -403,957 -396,956 -390,956 -384,956 -377,956 -370,956 -363,955 -356,955 -349,955 -343,955 -335,955 -328,955 -321,955 -313,955 -306,954 -299,954 -292,954 -284,954 -276,954 -265,954 -257,954 -250,954 -242,954 -234,954 -226,954 -218,954 -210,954 -203,954 -195,953 -187,953 -178,953 -170,953 -162,953 -153,953 -145,953 -138,953 -129,953 -121,953 -112,953 -104,953 -95,953 -88,953 -79,953 -71,953 -62,953 -53,953 -44,953 -36,953 -28,953 -19,953 -11,953 -2,953 6,953 15,953 23,953 32,954 41,954 50,954 59,954 68,954 77,954 85,954 94,953 103,953 112,953 121,953 131,953 138,953 148,952 157,952 166,952 175,951 185,951 194,950 202,950 211,949 220,948 229,946 239,945 248,943 255,941 264,939 273,936 281,932 290,929 299,925 307,921 315,917 324,912 331,907 340,902 348,896 355,890 362,884 368,879 373,877" vector-effect="non-scaling-stroke" fill="none" style="stroke: #FBBF24; stroke-width:2"/>
  <circle id="minimapCarCircle" cx="374" cy="875" r="17" stroke="black" stroke-width="13" fill="white"/>
</svg>