<?xml version="1.0" standalone="no"?>
<!DOCTYPE svg PUBLIC "-//W3C//DTD SVG 20010904//EN"
 "http://www.w3.org/TR/2001/REC-SVG-20010904/DTD/svg10.dtd">
<svg version="1.0" xmlns="http://www.w3.org/2000/svg"
 width="680.000000pt" height="680.000000pt" viewBox="0 0 680.000000 680.000000"
 preserveAspectRatio="xMidYMid meet">
<metadata>
Created by potrace 1.14, written by Peter Selinger 2001-2017
</metadata>
<g transform="translate(0.000000,680.000000) scale(0.100000,-0.100000)"
fill="#000000" stroke="none">
<path d="M0 3400 l0 -3400 3400 0 3400 0 0 3400 0 3400 -3400 0 -3400 0 0
-3400z m5723 2579 c110 -36 213 -133 254 -239 17 -42 18 -176 21 -2320 l3
-2275 -21 -66 c-36 -111 -132 -214 -240 -256 -42 -17 -146 -18 -1655 -21
l-1610 -3 -66 21 c-36 12 -88 38 -114 58 -219 165 -218 479 0 644 105 79 -25
73 1523 76 l1382 2 0 1800 0 1800 -175 0 c-150 0 -183 3 -238 21 -77 25 -148
77 -199 144 -48 64 -68 121 -75 215 -10 144 60 278 187 360 86 55 117 59 557
59 383 1 406 0 466 -20z"/>
</g>
</svg>
