<svg width="466" height="203" viewBox="0 0 466 203" fill="none" xmlns="http://www.w3.org/2000/svg">
<path d="M98.6604 10.4487H18.6604V192.874H98.6604V10.4487Z" fill="black" stroke="#020202" stroke-width="7.37592"/>
<mask id="path-2-inside-1_1_104" fill="white">
<path fill-rule="evenodd" clip-rule="evenodd" d="M100.472 149.172C100.449 160.974 96.0358 172.283 88.2024 180.613C80.3689 188.943 69.7564 193.613 58.698 193.595C47.6395 193.577 37.0404 188.873 29.2309 180.517C21.4213 172.161 17.0406 160.837 17.0519 149.036C17.0632 137.234 21.4654 125.92 29.2909 117.581C37.1164 109.242 47.7244 104.561 58.7829 104.567C69.8413 104.573 80.4449 109.265 88.2625 117.613C96.08 125.96 100.472 137.279 100.472 149.081"/>
</mask>
<path fill-rule="evenodd" clip-rule="evenodd" d="M100.472 149.172C100.449 160.974 96.0358 172.283 88.2024 180.613C80.3689 188.943 69.7564 193.613 58.698 193.595C47.6395 193.577 37.0404 188.873 29.2309 180.517C21.4213 172.161 17.0406 160.837 17.0519 149.036C17.0632 137.234 21.4654 125.92 29.2909 117.581C37.1164 109.242 47.7244 104.561 58.7829 104.567C69.8413 104.573 80.4449 109.265 88.2625 117.613C96.08 125.96 100.472 137.279 100.472 149.081" fill="#1E1E1E"/>
<path d="M98.4715 149.168C98.4499 160.48 94.2188 171.296 86.7454 179.243L89.6594 181.983C97.8529 173.27 102.448 161.467 102.472 149.175L98.4715 149.168ZM86.7454 179.243C79.2761 187.186 69.1859 191.612 58.7012 191.595L58.6947 195.595C70.3269 195.614 81.4617 190.701 89.6594 181.983L86.7454 179.243ZM58.7012 191.595C48.2166 191.578 38.1387 187.119 30.692 179.151L27.7697 181.882C35.9421 190.626 47.0625 195.576 58.6947 195.595L58.7012 191.595ZM30.692 179.151C23.2412 171.179 19.0411 160.35 19.0519 149.037L15.0519 149.034C15.0402 161.325 19.6014 173.143 27.7697 181.882L30.692 179.151ZM19.0519 149.037C19.0627 137.725 23.2835 126.905 30.7493 118.949L27.8325 116.212C19.6474 124.934 15.0636 136.742 15.0519 149.034L19.0519 149.037ZM30.7493 118.949C38.211 110.998 48.2971 106.561 58.7818 106.567L58.784 102.567C47.1517 102.561 36.0217 107.486 27.8325 116.212L30.7493 118.949ZM58.7818 106.567C69.2665 106.573 79.3485 111.02 86.8027 118.98L89.7223 116.246C81.5414 107.51 70.4162 102.573 58.784 102.567L58.7818 106.567ZM86.8027 118.98C94.2611 126.944 98.4716 137.769 98.4716 149.081L102.472 149.081C102.472 136.789 97.899 124.976 89.7223 116.246L86.8027 118.98Z" fill="#080808" mask="url(#path-2-inside-1_1_104)"/>
<mask id="path-4-inside-2_1_104" fill="white">
<path fill-rule="evenodd" clip-rule="evenodd" d="M100.42 53.7053C100.397 65.5072 95.984 76.8164 88.1505 85.1467C80.3171 93.477 69.7045 98.1464 58.6461 98.1283C47.5876 98.1103 36.9885 93.4062 29.179 85.0504C21.3695 76.6946 16.9888 65.371 17 53.5692C17.0113 41.7673 21.4136 30.4532 29.239 22.1144C37.0645 13.7756 47.6726 9.0946 58.731 9.10058C69.7895 9.10656 80.3931 13.799 88.2106 22.1463C96.0281 30.4936 100.42 41.8124 100.42 53.6143"/>
</mask>
<path fill-rule="evenodd" clip-rule="evenodd" d="M100.42 53.7053C100.397 65.5072 95.984 76.8164 88.1505 85.1467C80.3171 93.477 69.7045 98.1464 58.6461 98.1283C47.5876 98.1103 36.9885 93.4062 29.179 85.0504C21.3695 76.6946 16.9888 65.371 17 53.5692C17.0113 41.7673 21.4136 30.4532 29.239 22.1144C37.0645 13.7756 47.6726 9.0946 58.731 9.10058C69.7895 9.10656 80.3931 13.799 88.2106 22.1463C96.0281 30.4936 100.42 41.8124 100.42 53.6143" fill="#1E1E1E"/>
<path d="M98.4197 53.7015C98.398 65.0135 94.1669 75.8292 86.6935 83.7766L89.6075 86.5168C97.801 77.8036 102.396 66.0008 102.42 53.7091L98.4197 53.7015ZM86.6935 83.7766C79.2243 91.7196 69.134 96.1454 58.6494 96.1283L58.6428 100.128C70.2751 100.147 81.4099 95.2344 89.6075 86.5168L86.6935 83.7766ZM58.6494 96.1283C48.1647 96.1112 38.0869 91.6524 30.6402 83.6848L27.7178 86.4161C35.8902 95.1601 47.0106 100.109 58.6428 100.128L58.6494 96.1283ZM30.6402 83.6848C23.1894 75.7128 18.9892 64.8831 19 53.5711L15 53.5672C14.9883 65.8589 19.5496 77.6764 27.7178 86.4161L30.6402 83.6848ZM19 53.5711C19.0108 42.259 23.2316 31.4386 30.6974 23.483L27.7806 20.7458C19.5956 29.4678 15.0117 41.2756 15 53.5672L19 53.5711ZM30.6974 23.483C38.1591 15.5318 48.2453 11.0949 58.7299 11.1006L58.7321 7.10058C47.0999 7.09429 35.9699 12.0194 27.7806 20.7458L30.6974 23.483ZM58.7299 11.1006C69.2146 11.1062 79.2966 15.5541 86.7508 23.5134L89.6704 20.7792C81.4895 12.044 70.3643 7.10687 58.7321 7.10058L58.7299 11.1006ZM86.7508 23.5134C94.2092 31.4772 98.4197 42.3022 98.4197 53.6143L102.42 53.6143C102.42 41.3226 97.8471 29.51 89.6704 20.7792L86.7508 23.5134Z" fill="#080808" mask="url(#path-4-inside-2_1_104)"/>
<path d="M185.956 10.3427H105.956V192.768H185.956V10.3427Z" fill="black" stroke="#020202" stroke-width="7.37592"/>
<mask id="path-7-inside-3_1_104" fill="white">
<path fill-rule="evenodd" clip-rule="evenodd" d="M187.91 149.208C187.887 161.01 183.474 172.319 175.64 180.649C167.807 188.98 157.194 193.649 146.136 193.631C135.078 193.613 124.478 188.909 116.669 180.553C108.859 172.197 104.479 160.874 104.49 149.072C104.501 137.27 108.903 125.956 116.729 117.617C124.554 109.278 135.162 104.597 146.221 104.603C157.279 104.609 167.883 109.302 175.7 117.649C183.518 125.996 187.91 137.315 187.91 149.117"/>
</mask>
<path fill-rule="evenodd" clip-rule="evenodd" d="M187.91 149.208C187.887 161.01 183.474 172.319 175.64 180.649C167.807 188.98 157.194 193.649 146.136 193.631C135.078 193.613 124.478 188.909 116.669 180.553C108.859 172.197 104.479 160.874 104.49 149.072C104.501 137.27 108.903 125.956 116.729 117.617C124.554 109.278 135.162 104.597 146.221 104.603C157.279 104.609 167.883 109.302 175.7 117.649C183.518 125.996 187.91 137.315 187.91 149.117" fill="#1E1E1E"/>
<path d="M185.91 149.204C185.888 160.516 181.657 171.332 174.183 179.279L177.097 182.02C185.291 173.306 189.886 161.504 189.91 149.212L185.91 149.204ZM174.183 179.279C166.714 187.222 156.624 191.648 146.139 191.631L146.133 195.631C157.765 195.65 168.9 190.737 177.097 182.02L174.183 179.279ZM146.139 191.631C135.655 191.614 125.577 187.155 118.13 179.188L115.208 181.919C123.38 190.663 134.5 195.612 146.133 195.631L146.139 191.631ZM118.13 179.188C110.679 171.216 106.479 160.386 106.49 149.074L102.49 149.07C102.478 161.362 107.039 173.179 115.208 181.919L118.13 179.188ZM106.49 149.074C106.501 137.762 110.721 126.941 118.187 118.986L115.271 116.249C107.085 124.971 102.502 136.778 102.49 149.07L106.49 149.074ZM118.187 118.986C125.649 111.035 135.735 106.598 146.22 106.603L146.222 102.603C134.59 102.597 123.46 107.522 115.271 116.249L118.187 118.986ZM146.22 106.603C156.704 106.609 166.786 111.057 174.241 119.016L177.16 116.282C168.979 107.547 157.854 102.61 146.222 102.603L146.22 106.603ZM174.241 119.016C181.699 126.98 185.91 137.805 185.91 149.117L189.91 149.117C189.91 136.825 185.337 125.013 177.16 116.282L174.241 119.016Z" fill="#080808" mask="url(#path-7-inside-3_1_104)"/>
<mask id="path-9-inside-4_1_104" fill="white">
<path fill-rule="evenodd" clip-rule="evenodd" d="M187.858 53.7418C187.835 65.5436 183.422 76.8528 175.588 85.1831C167.755 93.5134 157.143 98.1828 146.084 98.1648C135.026 98.1467 124.427 93.4427 116.617 85.0869C108.807 76.7311 104.427 65.4075 104.438 53.6056C104.449 41.8037 108.852 30.4897 116.677 22.1508C124.502 13.812 135.111 9.13104 146.169 9.13702C157.227 9.143 167.831 13.8355 175.649 22.1827C183.466 30.53 187.858 41.8488 187.858 53.6507"/>
</mask>
<path fill-rule="evenodd" clip-rule="evenodd" d="M187.858 53.7418C187.835 65.5436 183.422 76.8528 175.588 85.1831C167.755 93.5134 157.143 98.1828 146.084 98.1648C135.026 98.1467 124.427 93.4427 116.617 85.0869C108.807 76.7311 104.427 65.4075 104.438 53.6056C104.449 41.8037 108.852 30.4897 116.677 22.1508C124.502 13.812 135.111 9.13104 146.169 9.13702C157.227 9.143 167.831 13.8355 175.649 22.1827C183.466 30.53 187.858 41.8488 187.858 53.6507" fill="#1E1E1E"/>
<path d="M185.858 53.7379C185.836 65.05 181.605 75.8656 174.132 83.813L177.045 86.5532C185.239 77.84 189.834 66.0372 189.858 53.7456L185.858 53.7379ZM174.132 83.813C166.662 91.756 156.572 96.1819 146.087 96.1648L146.081 100.165C157.713 100.184 168.848 95.2708 177.045 86.5532L174.132 83.813ZM146.087 96.1648C135.603 96.1476 125.525 91.6888 118.078 83.7212L115.156 86.4525C123.328 95.1965 134.449 100.146 146.081 100.165L146.087 96.1648ZM118.078 83.7212C110.627 75.7492 106.427 64.9196 106.438 53.6075L102.438 53.6037C102.426 65.8954 106.988 77.7129 115.156 86.4525L118.078 83.7212ZM106.438 53.6075C106.449 42.2954 110.67 31.4751 118.135 23.5195L115.219 20.7822C107.034 29.5043 102.45 41.312 102.438 53.6037L106.438 53.6075ZM118.135 23.5195C125.597 15.5682 135.683 11.1314 146.168 11.137L146.17 7.13702C134.538 7.13073 123.408 12.0558 115.219 20.7822L118.135 23.5195ZM146.168 11.137C156.653 11.1427 166.735 15.5905 174.189 23.5499L177.108 20.8156C168.928 12.0804 157.802 7.14331 146.17 7.13702L146.168 11.137ZM174.189 23.5499C181.647 31.5136 185.858 42.3386 185.858 53.6507L189.858 53.6507C189.858 41.359 185.285 29.5464 177.108 20.8156L174.189 23.5499Z" fill="#080808" mask="url(#path-9-inside-4_1_104)"/>
<path d="M273.108 10.3514H193.108V192.776H273.108V10.3514Z" fill="black" stroke="#020202" stroke-width="7.37592"/>
<mask id="path-12-inside-5_1_104" fill="white">
<path fill-rule="evenodd" clip-rule="evenodd" d="M274.919 149.074C274.897 160.876 270.483 172.185 262.65 180.516C254.817 188.846 244.204 193.515 233.146 193.497C222.087 193.479 211.488 188.775 203.679 180.419C195.869 172.064 191.488 160.74 191.5 148.938C191.511 137.136 195.913 125.822 203.739 117.483C211.564 109.145 222.172 104.464 233.231 104.47C244.289 104.476 254.893 109.168 262.71 117.515C270.528 125.863 274.919 137.181 274.919 148.983"/>
</mask>
<path fill-rule="evenodd" clip-rule="evenodd" d="M274.919 149.074C274.897 160.876 270.483 172.185 262.65 180.516C254.817 188.846 244.204 193.515 233.146 193.497C222.087 193.479 211.488 188.775 203.679 180.419C195.869 172.064 191.488 160.74 191.5 148.938C191.511 137.136 195.913 125.822 203.739 117.483C211.564 109.145 222.172 104.464 233.231 104.47C244.289 104.476 254.893 109.168 262.71 117.515C270.528 125.863 274.919 137.181 274.919 148.983" fill="#1E1E1E"/>
<path d="M272.919 149.071C272.898 160.383 268.666 171.198 261.193 179.146L264.107 181.886C272.301 173.173 276.896 161.37 276.919 149.078L272.919 149.071ZM261.193 179.146C253.724 187.089 243.634 191.514 233.149 191.497L233.142 195.497C244.775 195.516 255.909 190.603 264.107 181.886L261.193 179.146ZM233.149 191.497C222.664 191.48 212.586 187.021 205.14 179.054L202.217 181.785C210.39 190.529 221.51 195.478 233.142 195.497L233.149 191.497ZM205.14 179.054C197.689 171.082 193.489 160.252 193.5 148.94L189.5 148.936C189.488 161.228 194.049 173.045 202.217 181.785L205.14 179.054ZM193.5 148.94C193.51 137.628 197.731 126.808 205.197 118.852L202.28 116.115C194.095 124.837 189.511 136.645 189.5 148.936L193.5 148.94ZM205.197 118.852C212.659 110.901 222.745 106.464 233.229 106.47L233.232 102.47C221.599 102.463 210.469 107.388 202.28 116.115L205.197 118.852ZM233.229 106.47C243.714 106.475 253.796 110.923 261.25 118.882L264.17 116.148C255.989 107.413 244.864 102.476 233.232 102.47L233.229 106.47ZM261.25 118.882C268.709 126.846 272.919 137.671 272.919 148.983L276.919 148.983C276.919 136.692 272.347 124.879 264.17 116.148L261.25 118.882Z" fill="#080808" mask="url(#path-12-inside-5_1_104)"/>
<mask id="path-14-inside-6_1_104" fill="white">
<path fill-rule="evenodd" clip-rule="evenodd" d="M274.867 53.608C274.845 65.4098 270.432 76.719 262.598 85.0493C254.765 93.3796 244.152 98.049 233.094 98.031C222.035 98.0129 211.436 93.3089 203.627 84.9531C195.817 76.5973 191.436 65.2737 191.448 53.4718C191.459 41.6699 195.861 30.3559 203.687 22.0171C211.512 13.6782 222.12 8.99725 233.179 9.00323C244.237 9.00921 254.841 13.7017 262.658 22.0489C270.476 30.3962 274.867 41.715 274.867 53.5169"/>
</mask>
<path fill-rule="evenodd" clip-rule="evenodd" d="M274.867 53.608C274.845 65.4098 270.432 76.719 262.598 85.0493C254.765 93.3796 244.152 98.049 233.094 98.031C222.035 98.0129 211.436 93.3089 203.627 84.9531C195.817 76.5973 191.436 65.2737 191.448 53.4718C191.459 41.6699 195.861 30.3559 203.687 22.0171C211.512 13.6782 222.12 8.99725 233.179 9.00323C244.237 9.00921 254.841 13.7017 262.658 22.0489C270.476 30.3962 274.867 41.715 274.867 53.5169" fill="#1E1E1E"/>
<path d="M272.867 53.6041C272.846 64.9162 268.615 75.7319 261.141 83.6792L264.055 86.4194C272.249 77.7062 276.844 65.9034 276.867 53.6118L272.867 53.6041ZM261.141 83.6792C253.672 91.6222 243.582 96.0481 233.097 96.031L233.09 100.031C244.723 100.05 255.857 95.137 264.055 86.4194L261.141 83.6792ZM233.097 96.031C222.612 96.0138 212.535 91.555 205.088 83.5874L202.165 86.3187C210.338 95.0627 221.458 100.012 233.09 100.031L233.097 96.031ZM205.088 83.5874C197.637 75.6154 193.437 64.7858 193.448 53.4737L189.448 53.4699C189.436 65.7616 193.997 77.5791 202.165 86.3187L205.088 83.5874ZM193.448 53.4737C193.458 42.1616 197.679 31.3413 205.145 23.3857L202.228 20.6484C194.043 29.3705 189.459 41.1782 189.448 53.4699L193.448 53.4737ZM205.145 23.3857C212.607 15.4344 222.693 10.9976 233.178 11.0032L233.18 7.00323C221.547 6.99694 210.417 11.922 202.228 20.6484L205.145 23.3857ZM233.178 11.0032C243.662 11.0089 253.744 15.4567 261.198 23.4161L264.118 20.6818C255.937 11.9466 244.812 7.00952 233.18 7.00323L233.178 11.0032ZM261.198 23.4161C268.657 31.3798 272.867 42.2048 272.867 53.5169L276.867 53.5169C276.867 41.2252 272.295 29.4126 264.118 20.6818L261.198 23.4161Z" fill="#080808" mask="url(#path-14-inside-6_1_104)"/>
<path d="M360.41 10.3482H280.41V192.773H360.41V10.3482Z" fill="black" stroke="#020202" stroke-width="7.37592"/>
<mask id="path-17-inside-7_1_104" fill="white">
<path fill-rule="evenodd" clip-rule="evenodd" d="M362.221 149.071C362.199 160.873 357.786 172.182 349.952 180.512C342.119 188.843 331.506 193.512 320.448 193.494C309.389 193.476 298.79 188.772 290.981 180.416C283.171 172.06 278.791 160.737 278.802 148.935C278.813 137.133 283.215 125.819 291.041 117.48C298.866 109.141 309.474 104.46 320.533 104.466C331.591 104.472 342.195 109.165 350.012 117.512C357.83 125.859 362.221 137.178 362.221 148.98"/>
</mask>
<path fill-rule="evenodd" clip-rule="evenodd" d="M362.221 149.071C362.199 160.873 357.786 172.182 349.952 180.512C342.119 188.843 331.506 193.512 320.448 193.494C309.389 193.476 298.79 188.772 290.981 180.416C283.171 172.06 278.791 160.737 278.802 148.935C278.813 137.133 283.215 125.819 291.041 117.48C298.866 109.141 309.474 104.46 320.533 104.466C331.591 104.472 342.195 109.165 350.012 117.512C357.83 125.859 362.221 137.178 362.221 148.98" fill="#1E1E1E"/>
<path d="M360.221 149.067C360.2 160.379 355.969 171.195 348.495 179.142L351.409 181.883C359.603 173.169 364.198 161.367 364.221 149.075L360.221 149.067ZM348.495 179.142C341.026 187.085 330.936 191.511 320.451 191.494L320.445 195.494C332.077 195.513 343.212 190.6 351.409 181.883L348.495 179.142ZM320.451 191.494C309.966 191.477 299.889 187.018 292.442 179.051L289.52 181.782C297.692 190.526 308.812 195.475 320.445 195.494L320.451 191.494ZM292.442 179.051C284.991 171.079 280.791 160.249 280.802 148.937L276.802 148.933C276.79 161.225 281.351 173.042 289.52 181.782L292.442 179.051ZM280.802 148.937C280.813 137.625 285.033 126.804 292.499 118.849L289.582 116.112C281.397 124.834 276.814 136.641 276.802 148.933L280.802 148.937ZM292.499 118.849C299.961 110.898 310.047 106.461 320.532 106.466L320.534 102.466C308.902 102.46 297.772 107.385 289.582 116.112L292.499 118.849ZM320.532 106.466C331.016 106.472 341.098 110.92 348.553 118.879L351.472 116.145C343.291 107.41 332.166 102.473 320.534 102.466L320.532 106.466ZM348.553 118.879C356.011 126.843 360.221 137.668 360.221 148.98L364.221 148.98C364.221 136.688 359.649 124.876 351.472 116.145L348.553 118.879Z" fill="#080808" mask="url(#path-17-inside-7_1_104)"/>
<mask id="path-19-inside-8_1_104" fill="white">
<path fill-rule="evenodd" clip-rule="evenodd" d="M362.17 53.6047C362.147 65.4066 357.734 76.7158 349.9 85.0461C342.067 93.3764 331.454 98.0458 320.396 98.0277C309.338 98.0097 298.738 93.3057 290.929 84.9499C283.119 76.5941 278.739 65.2705 278.75 53.4686C278.761 41.6667 283.163 30.3527 290.989 22.0138C298.814 13.675 309.422 8.99403 320.481 9.00001C331.539 9.00599 342.143 13.6984 349.96 22.0457C357.778 30.393 362.17 41.7118 362.17 53.5137"/>
</mask>
<path fill-rule="evenodd" clip-rule="evenodd" d="M362.17 53.6047C362.147 65.4066 357.734 76.7158 349.9 85.0461C342.067 93.3764 331.454 98.0458 320.396 98.0277C309.338 98.0097 298.738 93.3057 290.929 84.9499C283.119 76.5941 278.739 65.2705 278.75 53.4686C278.761 41.6667 283.163 30.3527 290.989 22.0138C298.814 13.675 309.422 8.99403 320.481 9.00001C331.539 9.00599 342.143 13.6984 349.96 22.0457C357.778 30.393 362.17 41.7118 362.17 53.5137" fill="#1E1E1E"/>
<path d="M360.17 53.6009C360.148 64.913 355.917 75.7286 348.443 83.676L351.357 86.4162C359.551 77.703 364.146 65.9002 364.17 53.6086L360.17 53.6009ZM348.443 83.676C340.974 91.619 330.884 96.0449 320.399 96.0277L320.393 100.028C332.025 100.047 343.16 95.1338 351.357 86.4162L348.443 83.676ZM320.399 96.0277C309.915 96.0106 299.837 91.5518 292.39 83.5842L289.468 86.3155C297.64 95.0595 308.761 100.009 320.393 100.028L320.399 96.0277ZM292.39 83.5842C284.939 75.6122 280.739 64.7826 280.75 53.4705L276.75 53.4667C276.738 65.7583 281.299 77.5759 289.468 86.3155L292.39 83.5842ZM280.75 53.4705C280.761 42.1584 284.981 31.3381 292.447 23.3824L289.531 20.6452C281.345 29.3673 276.762 41.175 276.75 53.4667L280.75 53.4705ZM292.447 23.3824C299.909 15.4312 309.995 10.9943 320.48 11L320.482 7.00001C308.85 6.99372 297.72 11.9188 289.531 20.6452L292.447 23.3824ZM320.48 11C330.964 11.0057 341.046 15.4535 348.501 23.4129L351.42 20.6786C343.239 11.9434 332.114 7.0063 320.482 7.00001L320.48 11ZM348.501 23.4129C355.959 31.3766 360.17 42.2016 360.17 53.5137L364.17 53.5137C364.17 41.222 359.597 29.4094 351.42 20.6786L348.501 23.4129Z" fill="#080808" mask="url(#path-19-inside-8_1_104)"/>
<path d="M448.079 10.3064H367.643V192.731H448.079V10.3064Z" fill="black" stroke="#020202" stroke-width="7.39598"/>
<mask id="path-22-inside-9_1_104" fill="white">
<path fill-rule="evenodd" clip-rule="evenodd" d="M449.434 149.135C449.411 160.937 444.998 172.247 437.165 180.577C429.331 188.907 418.719 193.576 407.66 193.558C396.602 193.54 386.003 188.836 378.193 180.481C370.384 172.125 366.003 160.801 366.014 148.999C366.026 137.197 370.428 125.883 378.253 117.545C386.079 109.206 396.687 104.525 407.745 104.531C418.804 104.537 429.407 109.229 437.225 117.576C445.043 125.924 449.434 137.242 449.434 149.044"/>
</mask>
<path fill-rule="evenodd" clip-rule="evenodd" d="M449.434 149.135C449.411 160.937 444.998 172.247 437.165 180.577C429.331 188.907 418.719 193.576 407.66 193.558C396.602 193.54 386.003 188.836 378.193 180.481C370.384 172.125 366.003 160.801 366.014 148.999C366.026 137.197 370.428 125.883 378.253 117.545C386.079 109.206 396.687 104.525 407.745 104.531C418.804 104.537 429.407 109.229 437.225 117.576C445.043 125.924 449.434 137.242 449.434 149.044" fill="#EF4444"/>
<path d="M447.434 149.132C447.412 160.444 443.181 171.259 435.708 179.207L438.622 181.947C446.815 173.234 451.411 161.431 451.434 149.139L447.434 149.132ZM435.708 179.207C428.239 187.15 418.148 191.576 407.664 191.558L407.657 195.558C419.289 195.577 430.424 190.664 438.622 181.947L435.708 179.207ZM407.664 191.558C397.179 191.541 387.101 187.082 379.655 179.115L376.732 181.846C384.905 190.59 396.025 195.539 407.657 195.558L407.664 191.558ZM379.655 179.115C372.204 171.143 368.004 160.313 368.014 149.001L364.014 148.997C364.003 161.289 368.564 173.107 376.732 181.846L379.655 179.115ZM368.014 149.001C368.025 137.689 372.246 126.869 379.712 118.913L376.795 116.176C368.61 124.898 364.026 136.706 364.014 148.997L368.014 149.001ZM379.712 118.913C387.174 110.962 397.26 106.525 407.744 106.531L407.746 102.531C396.114 102.524 384.984 107.449 376.795 116.176L379.712 118.913ZM407.744 106.531C418.229 106.536 428.311 110.984 435.765 118.944L438.685 116.209C430.504 107.474 419.379 102.537 407.746 102.531L407.744 106.531ZM435.765 118.944C443.224 126.907 447.434 137.732 447.434 149.044L451.434 149.044C451.434 136.753 446.861 124.94 438.685 116.209L435.765 118.944Z" fill="#080808" mask="url(#path-22-inside-9_1_104)"/>
<mask id="path-24-inside-10_1_104" fill="white">
<path fill-rule="evenodd" clip-rule="evenodd" d="M449.382 53.6691C449.36 65.4709 444.946 76.7802 437.113 85.1104C429.28 93.4407 418.667 98.1101 407.609 98.0921C396.55 98.074 385.951 93.37 378.142 85.0142C370.332 76.6584 365.951 65.3348 365.963 53.5329C365.974 41.731 370.376 30.417 378.202 22.0782C386.027 13.7393 396.635 9.05835 407.694 9.06433C418.752 9.07031 429.356 13.7628 437.173 22.11C444.991 30.4573 449.382 41.7761 449.382 53.578"/>
</mask>
<path fill-rule="evenodd" clip-rule="evenodd" d="M449.382 53.6691C449.36 65.4709 444.946 76.7802 437.113 85.1104C429.28 93.4407 418.667 98.1101 407.609 98.0921C396.55 98.074 385.951 93.37 378.142 85.0142C370.332 76.6584 365.951 65.3348 365.963 53.5329C365.974 41.731 370.376 30.417 378.202 22.0782C386.027 13.7393 396.635 9.05835 407.694 9.06433C418.752 9.07031 429.356 13.7628 437.173 22.11C444.991 30.4573 449.382 41.7761 449.382 53.578" fill="#1E1E1E"/>
<path d="M447.382 53.6652C447.361 64.9773 443.129 75.793 435.656 83.7403L438.57 86.4805C446.764 77.7673 451.359 65.9645 451.382 53.6729L447.382 53.6652ZM435.656 83.7403C428.187 91.6833 418.097 96.1092 407.612 96.0921L407.605 100.092C419.238 100.111 430.372 95.1981 438.57 86.4805L435.656 83.7403ZM407.612 96.0921C397.127 96.0749 387.049 91.6161 379.603 83.6485L376.68 86.3798C384.853 95.1239 395.973 100.073 407.605 100.092L407.612 96.0921ZM379.603 83.6485C372.152 75.6766 367.952 64.8469 367.963 53.5348L363.963 53.531C363.951 65.8227 368.512 77.6402 376.68 86.3798L379.603 83.6485ZM367.963 53.5348C367.973 42.2228 372.194 31.4024 379.66 23.4468L376.743 20.7095C368.558 29.4316 363.974 41.2393 363.963 53.531L367.963 53.5348ZM379.66 23.4468C387.122 15.4956 397.208 11.0587 407.692 11.0643L407.695 7.06433C396.062 7.05804 384.932 11.9831 376.743 20.7095L379.66 23.4468ZM407.692 11.0643C418.177 11.07 428.259 15.5178 435.713 23.4772L438.633 20.7429C430.452 12.0077 419.327 7.07062 407.695 7.06433L407.692 11.0643ZM435.713 23.4772C443.172 31.4409 447.382 42.266 447.382 53.578L451.382 53.578C451.382 41.2863 446.81 29.4737 438.633 20.7429L435.713 23.4772Z" fill="#080808" mask="url(#path-24-inside-10_1_104)"/>
</svg>
